<?xml version="1.0" standalone="no"?><!DOCTYPE svg PUBLIC "-//W3C//DTD SVG 1.1//EN" "http://www.w3.org/Graphics/SVG/1.1/DTD/svg11.dtd"><svg t="1700423527139" class="icon" viewBox="0 0 1024 1024" version="1.1" xmlns="http://www.w3.org/2000/svg" p-id="4117" xmlns:xlink="http://www.w3.org/1999/xlink" width="200" height="200"><path d="M899.4 310.4c-17.2-41.5-42-78.7-73.8-110.5s-68.9-56.6-110.5-73.8c-41.5-17.2-85.4-25.9-130.3-25.9-12.2 0-22.1 9.9-22.1 22.1v318.4c0 12.2 9.9 22.1 22.1 22.1h318.4c12.2 0 22.1-9.9 22.1-22.1 0.1-44.9-8.7-88.7-25.9-130.3zM606.9 418.6V145.3c70 5.4 138 36.5 187.4 85.9 49.4 49.4 80.5 117.4 85.9 187.4H606.9z" fill="#4E30DC" p-id="4118"></path><path d="M849.4 508.8H518.9V173.5c0-13.4-10.8-24.3-24-24.3h-5.8c-212.6 0-385.6 173-385.6 385.6s173 385.6 385.6 385.6c212.6 0 385.6-173 385.6-385.6 0-4.2-1.1-8.4-3.3-12-4-8.6-12.6-14-22-14zM465 197.8c1.4-0.1 2.7 0.4 3.7 1.3s1.6 2.2 1.6 3.6v330.5c0 13.4 10.9 24.3 24.3 24.3 1.1 0 2.3-0.1 3.5-0.3 0.9 0.1 1.7 0.1 2.5 0.1h315.8c2.6 0 4.9 1 6.6 2.9 1.7 1.9 2.6 4.4 2.3 6.9-16.6 173.3-160.6 304.6-334.9 305.3H489c-185.2 0-336.6-150.3-337.8-335.6-1.1-177.5 136.7-326.4 313.8-339z" fill="#4E30DC" p-id="4119"></path><path d="M440.7 732.6c-20.9-7.7-40.8-17.9-59.4-30.3-26.2-17.5-49.1-39-68.1-63.9-9.5-12.4-27-15.3-40-6.6l-0.3 0.2c-6.6 4.6-11 11.5-12.3 19.4-1.3 8 0.8 16.3 5.7 22.7 23 30.1 50.6 56 82.2 77.2 22.3 14.9 46.4 27.2 71.5 36.5 3.3 1.2 6.8 1.8 10.3 1.8 4.6 0 9.1-1.1 13.2-3.1 7.4-3.7 12.7-10 15.1-17.9 4.5-14.7-3.4-30.6-17.9-36z" fill="#FF4E7D" p-id="4120"></path></svg>